<?xml version="1.0" standalone="no"?><!DOCTYPE svg PUBLIC "-//W3C//DTD SVG 1.1//EN" "http://www.w3.org/Graphics/SVG/1.1/DTD/svg11.dtd"><svg t="1524033477227" class="icon" style="" viewBox="0 0 1024 1024" version="1.1" xmlns="http://www.w3.org/2000/svg" p-id="3026" xmlns:xlink="http://www.w3.org/1999/xlink" width="400" height="400"><defs><style type="text/css"></style></defs><path d="M359.954 553.06c0-22.643-18.357-41.005-41.004-41.005l0 0c-67.942 0-123.016-55.074-123.016-123.014 0-67.941 55.074-123.016 123.011-123.016l0.005 0c22.646 0 41.004-18.363 41.004-41.01 0-22.646-18.357-41.004-41.004-41.004l0 0c-113.236 0-205.03 91.794-205.03 205.03 0 62.347 27.837 118.186 71.751 155.793C94.267 592.84 31.91 688.68 31.91 799.096c0 22.646 18.357 41.004 41.005 41.004 22.646 0 41.005-18.357 41.005-41.004 0-113.23 91.794-205.025 205.03-205.025C341.597 594.07 359.954 575.707 359.954 553.06L359.954 553.06zM359.954 553.06" p-id="3027"></path><path d="M606 102c70.855 0 135.028 28.738 181.491 75.191 46.453 46.458 75.187 110.631 75.187 181.491 0 70.855-28.733 135.057-75.187 181.491-11.643 11.638-24.384 22.154-38.072 31.386 54.225 20.511 102.907 52.276 143.198 92.451 73.47 73.304 118.923 174.484 118.923 286.138 0 19.287-15.649 34.938-34.96 34.938-19.283 0-34.934-15.65-34.934-34.938 0-92.508-37.527-176.21-98.19-236.715-60.644-60.479-144.446-97.946-237.038-98.068L606 615.365l-0.023 0-0.398 0c-92.63 0.122-176.433 37.59-237.058 98.068-60.663 60.505-98.19 144.207-98.19 236.715 0 19.287-15.65 34.938-34.956 34.938-19.287 0-34.938-15.65-34.938-34.938 0-111.653 45.454-212.834 118.942-286.138 40.254-40.175 88.937-71.94 143.161-92.451-13.67-9.231-26.411-19.748-38.048-31.386-46.439-46.435-75.173-110.636-75.173-181.491 0-70.86 28.733-135.033 75.173-181.491C470.943 130.738 535.121 102 606 102L606 102 606 102zM738.063 226.62c-33.792-33.792-80.494-54.727-132.063-54.727-51.573 0-98.294 20.934-132.086 54.727-33.792 33.792-54.722 80.489-54.722 132.063 0 51.573 20.93 98.27 54.722 132.086 33.693 33.689 80.25 54.581 131.664 54.703l0.398 0L606 545.472l0.398 0c51.409-0.122 97.966-21.014 131.659-54.703 33.797-33.816 54.727-80.513 54.727-132.086C792.784 307.109 771.854 260.412 738.063 226.62L738.063 226.62zM738.063 226.62" p-id="3028"></path></svg>