<?xml version="1.0" standalone="no"?><!DOCTYPE svg PUBLIC "-//W3C//DTD SVG 1.1//EN" "http://www.w3.org/Graphics/SVG/1.1/DTD/svg11.dtd"><svg t="1524031841960" class="icon" style="" viewBox="0 0 1024 1024" version="1.1" xmlns="http://www.w3.org/2000/svg" p-id="2039" xmlns:xlink="http://www.w3.org/1999/xlink" width="400" height="400"><defs><style type="text/css"></style></defs><path d="M836.386133 793.719467H204.680533A42.5984 42.5984 0 0 1 162.133333 751.1552V273.066667a25.6 25.6 0 0 0-51.2 0v478.088533a93.7984 93.7984 0 0 0 93.7472 93.764267h631.7056a25.6 25.6 0 0 0 0-51.2z" fill="#108EE9" p-id="2040"></path><path d="M441.412267 335.189333a25.3952 25.3952 0 0 0-22.408534 7.099734l-144.981333 144.981333c-10.018133 10.001067-9.915733 26.112 0.085333 36.113067 10.069333 10.069333 26.1632 10.0352 36.113067 0.085333l131.191467-131.191467 131.191466 131.191467a25.480533 25.480533 0 0 0 39.099734-3.652267c2.0992-1.160533 4.061867-2.628267 5.8368-4.4032L822.613333 310.340267a25.5488 25.5488 0 0 0 0.0512-36.232534 25.565867 25.565867 0 0 0-36.2496 0.034134L591.0528 469.504l-127.232-127.214933a25.3952 25.3952 0 0 0-22.408533-7.082667z" fill="#108EE9" p-id="2041"></path></svg>